<svg xmlns="http://www.w3.org/2000/svg" width="15.605" height="18" viewBox="0 0 15.605 18"><defs><style>.a{fill:#fff;}</style></defs><g transform="translate(10 2)"><g transform="translate(-10 -2)"><path class="a" d="M283.66,18.783s0-5.072,0-5.577c0-.46-.012-11.514-.012-11.514h-.231s-1.89,1.161-1.89,9.772c1.452.434.841,2.162.731,2.381,0,.439.031,4.941.031,4.941h0a.036.036,0,0,0,0,.015.687.687,0,1,0,1.37,0,.014.014,0,0,0,0-.013Z" transform="translate(-268.055 -1.618)"/><path class="a" d="M183.559,8.448h-.411l.122,4.692h-.493V8.447h-.36v4.721h-.409V8.447h-.4v4.721h-.484l.138-4.722h-.375l-.456,3.994s-.011.15-.011.207a2.022,2.022,0,0,0,.671,1.525c1.349,1.661.428,3.355.428,3.758,0,.445,0,7.3,0,7.3h0c0,.005,0,.009,0,.016a.7.7,0,1,0,1.4,0c0-.007,0-.011,0-.015h0s0-6.774,0-7.291c0-.467-.779-2.416.522-3.864l.006-.009A2.032,2.032,0,0,0,184,12.784c0-.036,0-.126,0-.126Z" transform="translate(-172.993 -8.082)"/><path class="a" d="M55.388,0h-.04c-1.511.027-2.362,1.6-2.362,3.312a3.359,3.359,0,0,0,1.784,3.23c.456.694.155,2.336-.166,3.282v7.39h0a.148.148,0,0,0,0,.016A.74.74,0,0,0,55.31,18h.115a.74.74,0,0,0,.707-.769.081.081,0,0,0,0-.016h0V9.826c-.322-.946-.622-2.588-.167-3.282a3.36,3.36,0,0,0,1.785-3.23C57.75,1.6,56.9.028,55.388,0ZM54.6,5.875a2.357,2.357,0,0,1-.341-.372,4.288,4.288,0,0,1-.386-.61q-.091-.179-.171-.381a2.559,2.559,0,0,1-.121-.436,3.141,3.141,0,0,1-.014-.873,4.221,4.221,0,0,1,.139-.723,2.988,2.988,0,0,1,.178-.487.91.91,0,0,1,.1-.17s-.009.073-.014.2-.009.3-.015.506a9.843,9.843,0,0,0,.035,1.47,2.118,2.118,0,0,0,.088.367c.034.124.076.246.12.363.085.236.177.455.256.644s.151.344.207.45.1.154.1.15A.312.312,0,0,1,54.6,5.875Z" transform="translate(-52.986)"/></g></g></svg>